<?xml version="1.0" encoding="utf-8"?>
<!-- Generator: Adobe Illustrator 23.0.3, SVG Export Plug-In . SVG Version: 6.00 Build 0)  -->
<svg version="1.1" id="Layer_1" xmlns="http://www.w3.org/2000/svg" xmlns:xlink="http://www.w3.org/1999/xlink" x="0px" y="0px"
	 viewBox="0 0 857.25 242.68" style="enable-background:new 0 0 857.25 242.68;" xml:space="preserve">
<style type="text/css">
	.st0{fill:#294270;}
	.st1{fill:#F0801A;}
</style>
<g>
	<path class="st0" d="M86.14,25.25h-9.17v69.37h9.17v6.31H69.71V18.95h16.43V25.25z"/>
	<path class="st0" d="M135.14,87.99h-7.68V37.37l-15.81,6.02v-7.01l22.86-8.8h0.62V87.99z"/>
	<path class="st0" d="M180.7,86.2c0,1.3-0.16,2.66-0.48,4.09c-0.32,1.42-0.79,2.83-1.41,4.23c-0.62,1.4-1.38,2.73-2.26,4
		c-0.89,1.27-1.91,2.41-3.07,3.4l-4.77-2.61c1.33-1.94,2.27-4,2.82-6.18c0.55-2.19,0.83-4.45,0.83-6.8V78.9h8.34V86.2z"/>
	<path class="st0" d="M300.27,87.99h-39.58v-5.52l19.79-21.99c1.77-1.96,3.25-3.71,4.44-5.23c1.19-1.52,2.14-2.93,2.86-4.21
		c0.72-1.29,1.23-2.5,1.54-3.65c0.3-1.15,0.46-2.33,0.46-3.55c0-1.49-0.24-2.9-0.73-4.21c-0.48-1.31-1.19-2.45-2.12-3.42
		c-0.93-0.97-2.05-1.74-3.36-2.3c-1.31-0.57-2.8-0.85-4.46-0.85c-2.02,0-3.77,0.29-5.25,0.87c-1.48,0.58-2.71,1.4-3.69,2.47
		c-0.98,1.06-1.72,2.36-2.2,3.88c-0.48,1.52-0.73,3.22-0.73,5.1h-7.72c0-2.54,0.44-4.94,1.33-7.2c0.88-2.25,2.16-4.23,3.84-5.91
		c1.67-1.69,3.72-3.03,6.14-4.02s5.18-1.49,8.28-1.49c2.85,0,5.41,0.42,7.7,1.27c2.28,0.84,4.21,2.01,5.79,3.51
		c1.58,1.49,2.79,3.26,3.63,5.31c0.84,2.05,1.27,4.27,1.27,6.68c0,1.8-0.3,3.58-0.91,5.33c-0.61,1.76-1.43,3.49-2.47,5.21
		c-1.04,1.72-2.24,3.41-3.61,5.08c-1.37,1.67-2.81,3.34-4.34,5l-16.22,17.59h30.33V87.99z"/>
	<path class="st0" d="M333.67,86.2c0,1.3-0.16,2.66-0.48,4.09c-0.32,1.42-0.79,2.83-1.41,4.23c-0.62,1.4-1.38,2.73-2.26,4
		c-0.89,1.27-1.91,2.41-3.07,3.4l-4.77-2.61c1.33-1.94,2.27-4,2.82-6.18c0.55-2.19,0.83-4.45,0.83-6.8V78.9h8.34V86.2z"/>
	<path class="st0" d="M425.16,54.09h5.48c1.94,0,3.64-0.26,5.12-0.79c1.48-0.53,2.72-1.24,3.73-2.16c1.01-0.91,1.78-2,2.3-3.28
		c0.53-1.27,0.79-2.67,0.79-4.19c0-3.51-0.9-6.16-2.7-7.95c-1.8-1.78-4.43-2.68-7.88-2.68c-1.63,0-3.12,0.24-4.46,0.73
		c-1.34,0.48-2.49,1.18-3.44,2.1c-0.95,0.91-1.69,2.01-2.22,3.28c-0.53,1.27-0.79,2.7-0.79,4.27h-7.72c0-2.3,0.45-4.46,1.35-6.49
		c0.9-2.03,2.16-3.8,3.8-5.31c1.63-1.51,3.59-2.7,5.87-3.57c2.28-0.87,4.82-1.31,7.61-1.31c2.71,0,5.19,0.37,7.43,1.1
		c2.24,0.73,4.16,1.82,5.77,3.26c1.6,1.44,2.85,3.22,3.73,5.35c0.88,2.13,1.33,4.59,1.33,7.39c0,1.16-0.18,2.37-0.54,3.61
		s-0.91,2.46-1.66,3.63c-0.75,1.18-1.71,2.28-2.88,3.32c-1.18,1.04-2.58,1.9-4.21,2.59c1.96,0.64,3.6,1.47,4.92,2.49
		c1.31,1.02,2.37,2.17,3.15,3.44c0.79,1.27,1.34,2.61,1.66,4.02s0.48,2.81,0.48,4.19c0,2.82-0.48,5.32-1.45,7.51
		c-0.97,2.19-2.31,4.03-4.02,5.54c-1.72,1.51-3.74,2.66-6.08,3.44c-2.34,0.79-4.86,1.18-7.57,1.18c-2.66,0-5.15-0.37-7.49-1.12
		c-2.34-0.75-4.36-1.84-6.08-3.28c-1.71-1.44-3.08-3.19-4.09-5.27c-1.01-2.07-1.51-4.44-1.51-7.09h7.68c0,1.58,0.27,3.02,0.81,4.31
		c0.54,1.3,1.31,2.41,2.3,3.32c1,0.91,2.21,1.62,3.63,2.12c1.42,0.5,3.01,0.75,4.75,0.75s3.32-0.23,4.73-0.68
		c1.41-0.46,2.61-1.15,3.61-2.1c1-0.94,1.76-2.11,2.3-3.51c0.54-1.4,0.81-3.05,0.81-4.96c0-1.88-0.31-3.51-0.93-4.88
		s-1.49-2.51-2.61-3.42c-1.12-0.91-2.48-1.59-4.07-2.03c-1.59-0.44-3.34-0.66-5.25-0.66h-5.48V54.09z"/>
	<path class="st0" d="M486.64,86.2c0,1.3-0.16,2.66-0.48,4.09c-0.32,1.42-0.79,2.83-1.41,4.23c-0.62,1.4-1.38,2.73-2.26,4
		c-0.89,1.27-1.91,2.41-3.07,3.4l-4.77-2.61c1.33-1.94,2.27-4,2.82-6.18c0.55-2.19,0.83-4.45,0.83-6.8V78.9h8.34V86.2z"/>
	<path class="st0" d="M600.28,67.7h8.42v6.27h-8.42v14.02h-7.68V73.96h-27.55v-4.52l27.05-41.86h8.17V67.7z M573.56,67.7h19.04
		V37.78l-1.25,2.32L573.56,67.7z"/>
	<path class="st0" d="M639.62,86.2c0,1.3-0.16,2.66-0.48,4.09c-0.32,1.42-0.79,2.83-1.41,4.23c-0.62,1.4-1.38,2.73-2.26,4
		c-0.89,1.27-1.91,2.41-3.07,3.4l-4.77-2.61c1.33-1.94,2.27-4,2.82-6.18c0.55-2.19,0.83-4.45,0.83-6.8V78.9h8.34V86.2z"/>
	<path class="st0" d="M724.88,57.7l3.03-30.12h30.99v7.47h-24.52l-1.7,16.1c1.19-0.69,2.61-1.3,4.27-1.83
		c1.66-0.53,3.58-0.79,5.77-0.79c2.79,0,5.3,0.48,7.51,1.45c2.21,0.97,4.09,2.33,5.64,4.09c1.55,1.76,2.74,3.88,3.57,6.37
		s1.25,5.26,1.25,8.3c0,2.88-0.39,5.55-1.16,8.01c-0.77,2.46-1.94,4.58-3.51,6.37s-3.53,3.18-5.91,4.19s-5.17,1.51-8.38,1.51
		c-2.46,0-4.79-0.35-6.97-1.04c-2.19-0.69-4.13-1.73-5.83-3.11c-1.7-1.38-3.1-3.12-4.19-5.23c-1.09-2.1-1.78-4.55-2.05-7.34h7.3
		c0.47,3.43,1.74,6.03,3.8,7.8c2.06,1.77,4.71,2.66,7.95,2.66c1.83,0,3.44-0.32,4.85-0.98c1.41-0.65,2.59-1.58,3.55-2.78
		s1.67-2.65,2.16-4.34c0.48-1.69,0.73-3.57,0.73-5.64c0-1.88-0.27-3.64-0.81-5.27c-0.54-1.63-1.32-3.05-2.34-4.25
		s-2.28-2.15-3.78-2.84c-1.49-0.69-3.21-1.04-5.14-1.04c-1.27,0-2.37,0.09-3.3,0.27c-0.93,0.18-1.76,0.44-2.51,0.77
		c-0.75,0.33-1.45,0.73-2.1,1.2c-0.65,0.47-1.32,1.01-2.01,1.62L724.88,57.7z"/>
	<path class="st0" d="M782.72,18.95h16.47v81.98h-16.47v-6.31h9.21V25.25h-9.21V18.95z"/>
</g>
<g>
	<path class="st1" d="M86.14,142.61h-9.17v69.37h9.17v6.31H69.71V136.3h16.43V142.61z"/>
	<path class="st1" d="M557.14,142.61h-9.17v69.37h9.17v6.31h-16.43V136.3h16.43V142.61z"/>
	<path class="st0" d="M135.14,205.34h-7.68v-50.62l-15.81,6.02v-7.01l22.86-8.8h0.62V205.34z"/>
	<path class="st0" d="M180.7,203.56c0,1.3-0.16,2.66-0.48,4.09c-0.32,1.42-0.79,2.83-1.41,4.23c-0.62,1.4-1.38,2.73-2.26,4
		c-0.89,1.27-1.91,2.41-3.07,3.4l-4.77-2.61c1.33-1.94,2.27-4,2.82-6.18c0.55-2.19,0.83-4.45,0.83-6.8v-7.43h8.34V203.56z"/>
	<path class="st0" d="M300.27,205.34h-39.58v-5.52l19.79-21.99c1.77-1.96,3.25-3.71,4.44-5.23c1.19-1.52,2.14-2.93,2.86-4.21
		c0.72-1.29,1.23-2.5,1.54-3.65c0.3-1.15,0.46-2.33,0.46-3.55c0-1.49-0.24-2.9-0.73-4.21c-0.48-1.31-1.19-2.45-2.12-3.42
		c-0.93-0.97-2.05-1.74-3.36-2.3c-1.31-0.57-2.8-0.85-4.46-0.85c-2.02,0-3.77,0.29-5.25,0.87c-1.48,0.58-2.71,1.4-3.69,2.47
		c-0.98,1.06-1.72,2.36-2.2,3.88c-0.48,1.52-0.73,3.22-0.73,5.1h-7.72c0-2.54,0.44-4.94,1.33-7.2c0.88-2.25,2.16-4.23,3.84-5.91
		c1.67-1.69,3.72-3.03,6.14-4.02s5.18-1.49,8.28-1.49c2.85,0,5.41,0.42,7.7,1.27c2.28,0.84,4.21,2.01,5.79,3.51s2.79,3.26,3.63,5.31
		c0.84,2.05,1.27,4.27,1.27,6.68c0,1.8-0.3,3.58-0.91,5.33c-0.61,1.76-1.43,3.49-2.47,5.21c-1.04,1.72-2.24,3.41-3.61,5.08
		c-1.37,1.67-2.81,3.34-4.34,5l-16.22,17.59h30.33V205.34z"/>
	<path class="st0" d="M333.67,203.56c0,1.3-0.16,2.66-0.48,4.09c-0.32,1.42-0.79,2.83-1.41,4.23c-0.62,1.4-1.38,2.73-2.26,4
		c-0.89,1.27-1.91,2.41-3.07,3.4l-4.77-2.61c1.33-1.94,2.27-4,2.82-6.18c0.55-2.19,0.83-4.45,0.83-6.8v-7.43h8.34V203.56z"/>
	<path class="st0" d="M425.16,171.44h5.48c1.94,0,3.64-0.26,5.12-0.79c1.48-0.53,2.72-1.24,3.73-2.16c1.01-0.91,1.78-2,2.3-3.28
		c0.53-1.27,0.79-2.67,0.79-4.19c0-3.51-0.9-6.16-2.7-7.95c-1.8-1.78-4.43-2.68-7.88-2.68c-1.63,0-3.12,0.24-4.46,0.73
		c-1.34,0.48-2.49,1.18-3.44,2.1c-0.95,0.91-1.69,2.01-2.22,3.28c-0.53,1.27-0.79,2.7-0.79,4.27h-7.72c0-2.3,0.45-4.46,1.35-6.49
		c0.9-2.03,2.16-3.8,3.8-5.31c1.63-1.51,3.59-2.7,5.87-3.57c2.28-0.87,4.82-1.31,7.61-1.31c2.71,0,5.19,0.37,7.43,1.1
		c2.24,0.73,4.16,1.82,5.77,3.26c1.6,1.44,2.85,3.22,3.73,5.35c0.88,2.13,1.33,4.59,1.33,7.39c0,1.16-0.18,2.37-0.54,3.61
		s-0.91,2.46-1.66,3.63c-0.75,1.18-1.71,2.28-2.88,3.32c-1.18,1.04-2.58,1.9-4.21,2.59c1.96,0.64,3.6,1.47,4.92,2.49
		c1.31,1.02,2.37,2.17,3.15,3.44c0.79,1.27,1.34,2.61,1.66,4.02s0.48,2.81,0.48,4.19c0,2.82-0.48,5.32-1.45,7.51
		c-0.97,2.19-2.31,4.03-4.02,5.54c-1.72,1.51-3.74,2.66-6.08,3.44c-2.34,0.79-4.86,1.18-7.57,1.18c-2.66,0-5.15-0.37-7.49-1.12
		c-2.34-0.75-4.36-1.84-6.08-3.28c-1.71-1.44-3.08-3.19-4.09-5.27c-1.01-2.07-1.51-4.44-1.51-7.09h7.68c0,1.58,0.27,3.02,0.81,4.31
		c0.54,1.3,1.31,2.41,2.3,3.32c1,0.91,2.21,1.62,3.63,2.12c1.42,0.5,3.01,0.75,4.75,0.75s3.32-0.23,4.73-0.68
		c1.41-0.46,2.61-1.15,3.61-2.1c1-0.94,1.76-2.11,2.3-3.51c0.54-1.4,0.81-3.05,0.81-4.96c0-1.88-0.31-3.51-0.93-4.88
		s-1.49-2.51-2.61-3.42c-1.12-0.91-2.48-1.59-4.07-2.03c-1.59-0.44-3.34-0.66-5.25-0.66h-5.48V171.44z"/>
	<path class="st0" d="M600.28,185.05h8.42v6.27h-8.42v14.02h-7.68v-14.02h-27.55v-4.52l27.05-41.86h8.17V185.05z M573.56,185.05
		h19.04v-29.91l-1.25,2.32L573.56,185.05z"/>
	<path class="st0" d="M639.62,203.56c0,1.3-0.16,2.66-0.48,4.09c-0.32,1.42-0.79,2.83-1.41,4.23c-0.62,1.4-1.38,2.73-2.26,4
		c-0.89,1.27-1.91,2.41-3.07,3.4l-4.77-2.61c1.33-1.94,2.27-4,2.82-6.18c0.55-2.19,0.83-4.45,0.83-6.8v-7.43h8.34V203.56z"/>
	<path class="st0" d="M724.88,175.05l3.03-30.12h30.99v7.47h-24.52l-1.7,16.1c1.19-0.69,2.61-1.3,4.27-1.83
		c1.66-0.53,3.58-0.79,5.77-0.79c2.79,0,5.3,0.48,7.51,1.45c2.21,0.97,4.09,2.33,5.64,4.09c1.55,1.76,2.74,3.88,3.57,6.37
		s1.25,5.26,1.25,8.3c0,2.88-0.39,5.55-1.16,8.01c-0.77,2.46-1.94,4.58-3.51,6.37s-3.53,3.18-5.91,4.19s-5.17,1.51-8.38,1.51
		c-2.46,0-4.79-0.35-6.97-1.04c-2.19-0.69-4.13-1.73-5.83-3.11c-1.7-1.38-3.1-3.12-4.19-5.23c-1.09-2.1-1.78-4.55-2.05-7.34h7.3
		c0.47,3.43,1.74,6.03,3.8,7.8c2.06,1.77,4.71,2.66,7.95,2.66c1.83,0,3.44-0.32,4.85-0.98c1.41-0.65,2.59-1.58,3.55-2.78
		s1.67-2.65,2.16-4.34c0.48-1.69,0.73-3.57,0.73-5.64c0-1.88-0.27-3.64-0.81-5.27c-0.54-1.63-1.32-3.05-2.34-4.25
		s-2.28-2.15-3.78-2.84c-1.49-0.69-3.21-1.04-5.14-1.04c-1.27,0-2.37,0.09-3.3,0.27c-0.93,0.18-1.76,0.44-2.51,0.77
		c-0.75,0.33-1.45,0.73-2.1,1.2c-0.65,0.47-1.32,1.01-2.01,1.62L724.88,175.05z"/>
	<path class="st1" d="M782.72,136.3h16.47v81.98h-16.47v-6.31h9.21v-69.37h-9.21V136.3z"/>
	<path class="st1" d="M472.72,136.3h16.47v81.98h-16.47v-6.31h9.21v-69.37h-9.21V136.3z"/>
</g>
</svg>
